<?xml version="1.0" standalone="no"?>
<!DOCTYPE svg PUBLIC "-//W3C//DTD SVG 20010904//EN"
 "http://www.w3.org/TR/2001/REC-SVG-20010904/DTD/svg10.dtd">
<svg version="1.0" xmlns="http://www.w3.org/2000/svg"
 width="469.000000pt" height="469.000000pt" viewBox="0 0 469.000000 469.000000"
 preserveAspectRatio="xMidYMid meet">
<metadata>
Created by potrace 1.11, written by Peter Selinger 2001-2013
</metadata>
<g transform="translate(0.000000,469.000000) scale(0.100000,-0.100000)"
fill="#000000" stroke="none">
<path d="M2400 3993 c-230 -30 -518 -143 -700 -275 -47 -34 -119 -76 -160 -94
-104 -45 -182 -88 -270 -147 -41 -28 -106 -61 -144 -74 -187 -63 -390 -185
-536 -320 -101 -94 -116 -103 -199 -132 -155 -53 -152 -50 -216 -366 -37 -187
-54 -379 -41 -468 4 -26 17 -59 29 -73 22 -24 25 -25 210 -31 123 -4 190 -10
192 -17 27 -101 88 -179 168 -215 55 -25 170 -29 222 -7 82 35 143 103 165
185 l11 42 657 -5 657 -6 8 -31 c10 -39 46 -96 83 -131 75 -70 212 -90 309
-44 62 29 117 88 140 152 10 27 21 52 25 57 3 4 62 8 129 8 68 1 161 4 208 9
76 7 87 10 117 39 18 17 47 64 65 104 19 39 37 79 41 87 6 12 40 16 182 20
145 4 179 8 201 23 32 21 95 115 108 161 18 66 23 69 165 73 71 2 139 6 151 9
61 12 140 149 173 299 6 28 11 91 12 142 0 137 -25 174 -139 208 -53 15 -296
50 -413 59 -101 8 -246 39 -295 62 -31 15 -60 49 -140 160 -226 318 -338 421
-522 483 -144 49 -171 53 -398 56 -121 2 -236 1 -255 -2z"/>
<path d="M405 1508 c-2 -7 -29 -87 -60 -178 -31 -91 -80 -237 -110 -325 -29
-88 -57 -168 -60 -177 -7 -16 1 -18 84 -18 74 0 91 3 91 15 0 8 7 33 16 55
l16 41 136 -3 135 -3 16 -50 16 -50 89 -3 c69 -2 87 0 84 10 -5 13 -56 162
-159 468 -28 80 -57 164 -65 188 l-16 42 -104 0 c-75 0 -106 -4 -109 -12z
m131 -220 c3 -18 19 -71 35 -117 15 -47 26 -88 23 -93 -7 -10 -151 -11 -158 0
-4 7 39 153 66 224 13 34 24 29 34 -14z"/>
<path d="M925 1363 c28 -87 80 -247 115 -355 l64 -198 103 0 102 0 101 313
c56 171 108 329 116 350 8 20 14 40 14 42 0 3 -39 5 -87 5 l-88 0 -69 -233
c-87 -291 -85 -286 -95 -267 -5 8 -41 124 -81 258 l-73 242 -87 0 -86 0 51
-157z"/>
<path d="M1660 1165 l0 -355 210 0 210 0 0 75 0 74 -127 3 -128 3 0 278 0 277
-82 0 -83 0 0 -355z"/>
<path d="M4022 1168 l3 -353 74 0 74 0 -2 97 c-1 55 2 99 8 102 5 4 36 -30 68
-75 99 -140 86 -130 180 -127 l82 3 -95 123 c-52 67 -94 125 -94 127 0 3 41
60 91 127 l90 123 -77 3 c-43 2 -82 1 -89 -2 -6 -2 -42 -50 -80 -105 -52 -78
-71 -98 -77 -86 -5 8 -8 100 -6 205 l3 190 -78 0 -77 0 2 -352z"/>
<path d="M2442 1325 c-24 -7 -52 -21 -63 -31 -19 -17 -20 -17 -26 4 -5 20 -12
22 -79 22 l-74 0 0 -355 0 -355 75 0 75 0 0 113 c0 63 3 116 6 119 3 3 24 -5
47 -18 56 -32 145 -33 202 -3 57 30 83 57 113 114 22 42 26 63 26 130 0 50 -6
93 -16 116 -49 113 -179 178 -286 144z m99 -151 c81 -41 76 -186 -8 -220 -80
-34 -163 8 -179 90 -8 43 25 118 59 134 33 16 94 14 128 -4z"/>
<path d="M3040 1322 c-66 -25 -87 -41 -127 -99 -30 -44 -36 -62 -41 -121 -7
-98 11 -161 61 -218 23 -26 59 -55 82 -65 59 -27 141 -25 198 5 44 24 45 24
50 5 5 -18 13 -20 79 -17 l73 3 3 230 c1 127 0 240 -3 253 -5 20 -11 22 -76
22 -60 0 -72 -3 -76 -18 -4 -17 -7 -17 -51 5 -65 31 -117 36 -172 15z m179
-160 c28 -23 34 -36 38 -77 3 -28 0 -62 -6 -77 -28 -73 -148 -90 -203 -29 -24
26 -28 40 -28 87 0 50 3 59 34 90 29 29 41 34 83 34 39 0 56 -6 82 -28z"/>
<path d="M3831 1316 c-18 -6 -42 -22 -52 -35 -22 -27 -39 -20 -39 15 0 24 -1
25 -72 22 l-73 -3 0 -250 0 -250 74 0 73 0 -1 112 c-3 176 18 219 114 233 l40
5 0 80 c0 89 -4 93 -64 71z"/>
</g>
</svg>
